<?xml version="1.0" encoding="UTF-8" standalone="no"?>
<svg
   xmlns:dc="http://purl.org/dc/elements/1.1/"
   xmlns:cc="http://creativecommons.org/ns#"
   xmlns:rdf="http://www.w3.org/1999/02/22-rdf-syntax-ns#"
   xmlns:svg="http://www.w3.org/2000/svg"
   xmlns="http://www.w3.org/2000/svg"
   xmlns:sodipodi="http://sodipodi.sourceforge.net/DTD/sodipodi-0.dtd"
   xmlns:inkscape="http://www.inkscape.org/namespaces/inkscape"
   width="67.632172mm"
   height="12.655996mm"
   viewBox="0 0 67.632172 12.655996"
   version="1.1"
   id="svg1616"
   inkscape:version="1.0.2-2 (e86c870879, 2021-01-15)"
   sodipodi:docname="daiken-e.svg">
  <defs
     id="defs1610" />
  <sodipodi:namedview
     id="base"
     pagecolor="#4d4d4d"
     bordercolor="#666666"
     borderopacity="1.0"
     inkscape:pageopacity="0"
     inkscape:pageshadow="2"
     inkscape:zoom="7.9195959"
     inkscape:cx="128.35767"
     inkscape:cy="63.342571"
     inkscape:document-units="mm"
     inkscape:current-layer="layer1"
     inkscape:document-rotation="0"
     showgrid="false"
     showborder="true"
     inkscape:showpageshadow="false"
     inkscape:window-width="3840"
     inkscape:window-height="2066"
     inkscape:window-x="-11"
     inkscape:window-y="-11"
     inkscape:window-maximized="1" />
  <metadata
     id="metadata1613">
    <rdf:RDF>
      <cc:Work
         rdf:about="">
        <dc:format>image/svg+xml</dc:format>
        <dc:type
           rdf:resource="http://purl.org/dc/dcmitype/StillImage" />
        <dc:title></dc:title>
      </cc:Work>
    </rdf:RDF>
  </metadata>
  <g
     inkscape:label="Layer 1"
     inkscape:groupmode="layer"
     id="layer1"
     transform="translate(-70.505346,-88.921998)">
    <path
       id="path1653"
       style="font-style:normal;font-variant:normal;font-weight:normal;font-stretch:normal;font-size:12.6602px;line-height:0.95;font-family:Abel;-inkscape-font-specification:'Abel, Normal';font-variant-ligatures:normal;font-variant-caps:normal;font-variant-numeric:normal;font-variant-east-asian:normal;text-align:center;letter-spacing:0.474758px;word-spacing:0px;text-anchor:middle;fill:#ecf22e;fill-opacity:1;stroke-width:0.474758"
       d="m 138.13752,97.316543 c 0,0.255512 -0.0495,0.4966 -0.14836,0.723264 -0.0948,0.226663 -0.22666,0.424479 -0.39563,0.593447 -0.16897,0.168967 -0.36678,0.302905 -0.59345,0.401813 -0.22666,0.09479 -0.46775,0.14218 -0.72326,0.14218 h -0.5069 c -0.25551,0 -0.4966,-0.04739 -0.72327,-0.14218 -0.22666,-0.09891 -0.42447,-0.232846 -0.59344,-0.401813 -0.16897,-0.168968 -0.30291,-0.366784 -0.40182,-0.593447 -0.0948,-0.226664 -0.14218,-0.467752 -0.14218,-0.723264 V 94.46058 c 0,-0.255512 0.0474,-0.4966 0.14218,-0.723263 0.0989,-0.226664 0.23285,-0.42448 0.40182,-0.593447 0.16897,-0.168967 0.36678,-0.300844 0.59344,-0.395631 0.22667,-0.09891 0.46776,-0.148362 0.72327,-0.148362 h 0.5069 c 0.25551,0 0.4966,0.04945 0.72326,0.148362 0.22667,0.09479 0.42448,0.226664 0.59345,0.395631 0.16897,0.168967 0.30084,0.366783 0.39563,0.593447 0.0989,0.226663 0.14836,0.467751 0.14836,0.723263 v 0.253451 l -0.76035,0.123635 v -0.420358 c 0,-0.152483 -0.0289,-0.294663 -0.0866,-0.42654 -0.0577,-0.135998 -0.13597,-0.253451 -0.2349,-0.352359 -0.0989,-0.09891 -0.21636,-0.17721 -0.35236,-0.234906 -0.13188,-0.05769 -0.27406,-0.08654 -0.42654,-0.08654 h -0.5069 c -0.15249,0 -0.29673,0.02885 -0.43272,0.08654 -0.13188,0.05769 -0.24727,0.135995 -0.34618,0.234906 -0.0989,0.09891 -0.17721,0.216361 -0.23491,0.352359 -0.0577,0.131877 -0.0865,0.274057 -0.0865,0.42654 v 2.942507 c 0,0.152483 0.0288,0.296724 0.0865,0.432722 0.0577,0.131877 0.13597,0.24727 0.23491,0.346177 0.0989,0.09891 0.2143,0.17721 0.34618,0.234907 0.13599,0.05769 0.28023,0.08654 0.43272,0.08654 h 0.5069 c 0.15248,0 0.29466,-0.02885 0.42654,-0.08654 0.136,-0.0577 0.25345,-0.136002 0.35236,-0.234907 0.0989,-0.09891 0.17721,-0.2143 0.2349,-0.346177 0.0577,-0.135998 0.0866,-0.280239 0.0866,-0.432722 v -0.420358 l 0.76035,0.123635 z m -7.29939,-6.113739 v -1.013805 h 0.88399 v 1.013805 z m 0.0618,7.850808 v -6.3301 h 0.76035 v 6.3301 z m -2.50235,-5.606837 c -0.15249,0 -0.29673,0.02885 -0.43273,0.08654 -0.13187,0.0577 -0.24726,0.136002 -0.34617,0.234906 -0.0989,0.09891 -0.17721,0.216361 -0.23491,0.35236 -0.0577,0.131877 -0.0865,0.274057 -0.0865,0.42654 v 4.506487 h -0.76036 v -6.3301 h 0.25345 l 0.41418,0.6429 c 0.17309,-0.234906 0.38945,-0.420358 0.64908,-0.556356 0.26375,-0.140119 0.55017,-0.210179 0.85926,-0.210179 h 0.44509 v 0.846898 z m -4.42489,5.606837 c -0.23079,0 -0.44921,-0.04327 -0.65527,-0.129817 -0.20193,-0.08654 -0.37914,-0.206058 -0.53163,-0.358541 -0.14836,-0.152483 -0.26787,-0.329692 -0.35854,-0.531629 -0.0865,-0.201937 -0.12981,-0.418298 -0.12981,-0.649083 V 93.446775 H 121.16 v -0.723263 h 1.13744 v -1.520708 l 0.76035,-0.123635 v 1.644343 h 1.60725 v 0.723263 h -1.60725 v 3.974858 c 0,0.127756 0.0227,0.24727 0.068,0.358541 0.0495,0.10715 0.1154,0.201937 0.19781,0.28436 0.0824,0.08242 0.17928,0.148361 0.29055,0.197815 0.11127,0.04533 0.23078,0.068 0.35854,0.068 h 0.69235 v 0.723264 z m -4.30126,-1.737069 c 0,0.255512 -0.0495,0.4966 -0.14836,0.723264 -0.0948,0.226663 -0.22666,0.424479 -0.39563,0.593447 -0.16897,0.168967 -0.36678,0.302905 -0.59345,0.401813 -0.22666,0.09479 -0.46775,0.14218 -0.72326,0.14218 h -0.5069 c -0.25551,0 -0.4966,-0.04739 -0.72327,-0.14218 -0.22666,-0.09891 -0.42447,-0.232846 -0.59344,-0.401813 -0.16897,-0.168968 -0.30291,-0.366784 -0.40182,-0.593447 -0.0948,-0.226664 -0.14218,-0.467752 -0.14218,-0.723264 V 94.46058 c 0,-0.255512 0.0474,-0.4966 0.14218,-0.723263 0.0989,-0.226664 0.23285,-0.42448 0.40182,-0.593447 0.16897,-0.168967 0.36678,-0.300844 0.59344,-0.395631 0.22667,-0.09891 0.46776,-0.148362 0.72327,-0.148362 h 0.5069 c 0.25551,0 0.4966,0.04945 0.72326,0.148362 0.22667,0.09479 0.42448,0.226664 0.59345,0.395631 0.16897,0.168967 0.30084,0.366783 0.39563,0.593447 0.0989,0.226663 0.14836,0.467751 0.14836,0.723263 v 0.253451 l -0.76035,0.123635 v -0.420358 c 0,-0.152483 -0.0288,-0.294663 -0.0865,-0.42654 -0.0577,-0.135998 -0.13604,-0.253451 -0.23491,-0.352359 -0.0989,-0.09891 -0.21636,-0.17721 -0.35236,-0.234906 -0.13188,-0.05769 -0.27406,-0.08654 -0.42654,-0.08654 h -0.5069 c -0.15249,0 -0.29673,0.02885 -0.43272,0.08654 -0.13188,0.05769 -0.24727,0.135995 -0.34618,0.234906 -0.0989,0.09891 -0.17721,0.216361 -0.23491,0.352359 -0.0577,0.131877 -0.0865,0.274057 -0.0865,0.42654 v 2.942507 c 0,0.152483 0.0288,0.296724 0.0865,0.432722 0.0577,0.131877 0.13604,0.24727 0.23491,0.346177 0.0989,0.09891 0.2143,0.17721 0.34618,0.234907 0.13599,0.05769 0.28023,0.08654 0.43272,0.08654 h 0.5069 c 0.15248,0 0.29466,-0.02885 0.42654,-0.08654 0.136,-0.0577 0.25345,-0.136002 0.35236,-0.234907 0.0989,-0.09891 0.17721,-0.2143 0.23491,-0.346177 0.0577,-0.135998 0.0865,-0.280239 0.0865,-0.432722 v -0.420358 l 0.76035,0.123635 z m -6.22377,0 c 0,0.255512 -0.0494,0.4966 -0.14836,0.723264 -0.0948,0.226663 -0.22666,0.424479 -0.39563,0.593447 -0.16897,0.168967 -0.36679,0.302905 -0.59345,0.401813 -0.22667,0.09479 -0.46775,0.14218 -0.72326,0.14218 h -0.50691 c -0.25551,0 -0.49659,-0.04739 -0.72326,-0.14218 -0.22667,-0.09891 -0.42448,-0.232846 -0.59345,-0.401813 -0.16897,-0.168968 -0.3029,-0.366784 -0.40181,-0.593447 -0.0948,-0.226664 -0.14218,-0.467752 -0.14218,-0.723264 V 94.46058 c 0,-0.255512 0.0474,-0.4966 0.14218,-0.723263 0.0989,-0.226664 0.23284,-0.42448 0.40181,-0.593447 0.16897,-0.168967 0.36678,-0.300844 0.59345,-0.395631 0.22667,-0.09891 0.46775,-0.148362 0.72326,-0.148362 h 0.50691 c 0.25551,0 0.49659,0.04945 0.72326,0.148362 0.22666,0.09479 0.42448,0.226664 0.59345,0.395631 0.16897,0.168967 0.30084,0.366783 0.39563,0.593447 0.0989,0.226663 0.14836,0.467751 0.14836,0.723263 v 1.489799 h -3.46796 v 1.409436 c 0,0.152483 0.0289,0.296724 0.0866,0.432722 0.0577,0.131877 0.13597,0.24727 0.2349,0.346177 0.0989,0.09891 0.21431,0.17721 0.34618,0.234907 0.136,0.05769 0.28024,0.08654 0.43272,0.08654 h 0.50691 c 0.15248,0 0.29466,-0.02885 0.42654,-0.08654 0.13599,-0.0577 0.25344,-0.136002 0.35235,-0.234907 0.0989,-0.09891 0.17722,-0.2143 0.23491,-0.346177 0.0577,-0.135998 0.0865,-0.280239 0.0865,-0.432722 v -0.420358 l 0.76036,0.123635 v 0.253451 z m -0.76036,-2.899235 c 0,-0.152483 -0.0288,-0.294663 -0.0865,-0.42654 -0.0577,-0.135998 -0.13597,-0.253451 -0.23491,-0.352359 -0.0989,-0.09891 -0.21636,-0.17721 -0.35235,-0.234906 -0.13188,-0.05769 -0.27406,-0.08654 -0.42654,-0.08654 h -0.50691 c -0.15248,0 -0.29672,0.02885 -0.43272,0.08654 -0.13187,0.05769 -0.24727,0.135995 -0.34618,0.234906 -0.0989,0.09891 -0.17721,0.216361 -0.2349,0.352359 -0.0577,0.131877 -0.0866,0.274057 -0.0866,0.42654 v 0.939624 h 2.7076 z m -6.47722,4.636304 v -8.864613 h 0.76035 v 8.864613 z m -2.24892,-1.737069 c 0,0.255512 -0.0495,0.4966 -0.14836,0.723264 -0.0948,0.226663 -0.22666,0.424479 -0.39563,0.593447 -0.16897,0.168967 -0.36678,0.302905 -0.59345,0.401813 -0.22666,0.09479 -0.46775,0.14218 -0.72326,0.14218 h -0.5069 c -0.25551,0 -0.4966,-0.04739 -0.72327,-0.14218 -0.22666,-0.09891 -0.42447,-0.232846 -0.59344,-0.401813 -0.16897,-0.168968 -0.302912,-0.366784 -0.401817,-0.593447 -0.09479,-0.226664 -0.14218,-0.467752 -0.14218,-0.723264 V 94.46058 c 0,-0.255512 0.04739,-0.4966 0.14218,-0.723263 0.09891,-0.226664 0.232847,-0.42448 0.401817,-0.593447 0.16897,-0.168967 0.36678,-0.300844 0.59344,-0.395631 0.22667,-0.09891 0.46776,-0.148362 0.72327,-0.148362 h 0.5069 c 0.25551,0 0.4966,0.04945 0.72326,0.148362 0.22667,0.09479 0.42448,0.226664 0.59345,0.395631 0.16897,0.168967 0.30084,0.366783 0.39563,0.593447 0.0989,0.226663 0.14836,0.467751 0.14836,0.723263 v 1.489799 h -3.46795 v 1.409436 c 0,0.152483 0.0288,0.296724 0.0865,0.432722 0.0577,0.131877 0.13604,0.24727 0.23491,0.346177 0.0989,0.09891 0.2143,0.17721 0.34617,0.234907 0.136,0.05769 0.28024,0.08654 0.43273,0.08654 h 0.5069 c 0.15248,0 0.29466,-0.02885 0.42654,-0.08654 0.136,-0.0577 0.25345,-0.136002 0.35236,-0.234907 0.0989,-0.09891 0.17721,-0.2143 0.2349,-0.346177 0.0577,-0.135998 0.0866,-0.280239 0.0866,-0.432722 v -0.420358 l 0.76035,0.123635 v 0.253451 z m -0.76035,-2.899235 c 0,-0.152483 -0.0289,-0.294663 -0.0866,-0.42654 -0.0577,-0.135998 -0.13597,-0.253451 -0.2349,-0.352359 -0.0989,-0.09891 -0.21636,-0.17721 -0.35236,-0.234906 -0.13188,-0.05769 -0.27406,-0.08654 -0.42654,-0.08654 h -0.5069 c -0.15249,0 -0.29673,0.02885 -0.43273,0.08654 -0.13187,0.05769 -0.24726,0.135995 -0.34617,0.234906 -0.0989,0.09891 -0.17721,0.216361 -0.23491,0.352359 -0.0577,0.131877 -0.0865,0.274057 -0.0865,0.42654 v 0.939624 h 2.7076 z"
       sodipodi:nodetypes="scscsscscsscscsscscsccscccsscscsscccsscscsccsccccccccccscscsccccccsccsscccsccccccccccscccsccsscscsscscsscscsscscsccscccsscscsscccsscscsccsccscsscscsscscsscscsccscccsscscsccccccccsscscsccccccccccscsscscsscscsscscsccscccsscscsccccccccsscscsccc" />
    <path
       id="path5416"
       style="fill:#ffffff;stroke-width:0.0543531"
       d="m 70.505363,99.72946 v -1.848009 l 1.834419,8.07e-4 c 1.801028,8.09e-4 1.838343,0.0031 2.050217,0.123124 0.243149,0.137698 0.436093,0.393275 0.517096,0.684885 0.0736,0.265023 0.07016,1.746993 -0.0048,2.044563 -0.03304,0.13107 -0.144519,0.33705 -0.247856,0.45776 -0.307956,0.35977 -0.46702,0.38478 -2.446838,0.38478 h -1.702255 z m 3.671307,1.06236 c 0.131497,-0.1315 0.133385,-0.14681 0.131694,-1.073475 -0.0012,-0.653148 -0.02199,-0.966386 -0.06793,-1.026308 -0.150918,-0.196526 -0.281653,-0.212706 -1.72041,-0.212706 h -1.416778 v 1.222947 1.222942 h 1.470005 1.470003 z m 1.079248,0.609 c 0.01917,-0.0972 0.0844,-0.49462 0.144266,-0.88324 0.2436,-1.581542 0.564922,-2.243285 1.232719,-2.538689 0.512587,-0.226743 1.232309,-0.172707 1.640785,0.123182 0.507679,0.36775 0.739939,0.937079 0.957279,2.346467 0.07298,0.47311 0.147846,0.92066 0.166365,0.99456 0.03304,0.13181 0.02734,0.13432 -0.295077,0.13432 -0.180825,0 -0.343624,-0.0243 -0.361738,-0.0533 -0.01832,-0.0293 -0.06914,-0.35339 -0.113428,-0.72018 -0.04425,-0.36678 -0.09127,-0.69746 -0.104436,-0.73482 -0.01776,-0.0505 -0.247265,-0.0679 -0.895328,-0.0679 h -0.871356 v -0.297529 -0.297527 l 0.816821,-0.01494 0.816821,-0.01494 -0.143025,-0.286874 c -0.203573,-0.408303 -0.441417,-0.573749 -0.858489,-0.597159 -0.396846,-0.02227 -0.593496,0.07721 -0.848476,0.429194 -0.228125,0.314896 -0.358511,0.775977 -0.493914,1.746265 -0.06359,0.45559 -0.126902,0.84669 -0.140714,0.86911 -0.01381,0.0223 -0.173497,0.0408 -0.354799,0.0408 h -0.329705 z m 4.568534,0.1083 c -0.01438,-0.0376 -0.01973,-0.87214 -0.01184,-1.854558 l 0.01438,-1.786201 0.285392,-0.0073 0.285388,-0.0073 -3.6e-5,1.861592 -4.3e-5,1.861597 h -0.273479 c -0.169522,0 -0.28346,-0.0259 -0.299716,-0.0683 z m 1.06231,-1.793241 -4.2e-5,-1.861587 0.285391,0.0073 0.285389,0.0073 0.01438,1.854548 0.01438,1.85455 h -0.299443 -0.299643 z m 3.696048,1.246001 c 0,-0.57511 -0.0085,-0.62343 -0.127156,-0.73506 -0.20346,-0.19114 -0.435004,-0.22559 -1.516645,-0.22559 h -1.019481 v -0.298935 -0.298936 h 1.056351 c 1.090576,0 1.267994,-0.02734 1.484657,-0.230492 0.112583,-0.105451 0.122308,-0.162447 0.122308,-0.716557 v -0.601995 h 0.326109 0.326106 v 0.668149 0.668153 l -0.250563,0.267898 -0.25059,0.267898 0.170988,0.143899 c 0.286096,0.240748 0.330153,0.384798 0.330153,1.079428 v 0.62775 h -0.326106 -0.326109 z m 1.929533,0.56517 c -0.294778,-0.0725 -0.514528,-0.2209 -0.666055,-0.44989 l -0.149255,-0.22553 v -1.150031 -1.150033 l 0.150214,-0.216765 c 0.08262,-0.119207 0.243769,-0.269364 0.358138,-0.333641 0.200135,-0.11247 0.272775,-0.117036 1.942374,-0.12149 l 1.73445,-0.0048 0.01635,0.302129 0.01635,0.30213 h -1.664691 -1.664663 l -0.158867,0.158867 c -0.137642,0.137641 -0.158895,0.199429 -0.158895,0.461997 v 0.30313 h 1.820829 1.82083 v 0.298939 0.298938 h -1.82083 -1.820829 v 0.30313 c 0,0.26257 0.02114,0.3244 0.158895,0.462 l 0.158867,0.1589 h 1.664663 1.66466 l -0.01635,0.31252 -0.01635,0.31252 -1.603413,0.008 c -0.881879,0.005 -1.676795,-0.01 -1.766475,-0.0315 z m 3.72438,-1.37634 c 0.0013,-1.572791 0.02311,-1.693892 0.358843,-2.007604 0.224827,-0.209972 0.404937,-0.261753 0.907217,-0.260738 0.514796,8.06e-4 0.791827,0.119742 0.999817,0.428371 0.195343,0.289843 0.232438,0.518534 0.234608,1.445922 0.0014,0.597349 0.02255,0.896649 0.06824,0.955889 0.113034,0.1472 0.292591,0.21271 0.583175,0.21271 0.236468,0 0.303984,-0.0245 0.438398,-0.1589 l 0.158895,-0.15887 v -1.390222 -1.39018 h 0.298939 0.298935 v 1.414918 c 0,1.539614 -0.01973,1.661934 -0.315417,1.973414 -0.208027,0.21902 -0.396973,0.30432 -0.756696,0.34158 -0.580871,0.0601 -1.046679,-0.15644 -1.277539,-0.59418 -0.108241,-0.20527 -0.121884,-0.32225 -0.137697,-1.179031 -0.01015,-0.540506 -0.04313,-1.002433 -0.07684,-1.069889 -0.08459,-0.16941 -0.327555,-0.252564 -0.647803,-0.221811 -0.184406,0.01776 -0.314673,0.06542 -0.393427,0.144153 -0.113851,0.11371 -0.118277,0.164843 -0.133921,1.529428 l -0.01635,1.41176 h -0.296329 -0.296376 l 0.0012,-1.42676 z M 77.544086,96.300436 c -2.172445,-0.187337 -3.761043,-0.724125 -4.070031,-1.375272 -0.495555,-1.044308 1.271617,-2.241601 5.235314,-3.547035 0.6708,-0.220908 1.240878,-0.394602 1.266842,-0.385954 0.02593,0.0085 -0.229394,0.111201 -0.567404,0.227871 -0.816477,0.281823 -2.131872,0.828882 -2.825788,1.175219 -1.149542,0.573737 -1.981388,1.258669 -2.110367,1.737667 -0.04888,0.181586 -0.04138,0.255326 0.04614,0.453126 0.122308,0.276439 0.337762,0.454192 0.829706,0.684397 1.896695,0.887573 7.15883,0.926526 11.217016,0.08304 1.218031,-0.253184 0.86334,-0.127043 -0.678204,0.241119 -1.066563,0.254735 -2.595859,0.514024 -3.723187,0.63126 -0.980086,0.101928 -3.778952,0.147085 -4.620009,0.07453 z m 1.277297,-1.794307 c 3.520961,-0.36248 7.278092,-1.487418 8.686772,-2.600917 1.066419,-0.842954 0.59872,-1.483256 -1.334363,-1.826816 l -0.42239,-0.07509 0.516355,0.02822 c 3.05577,0.167605 4.032831,0.93006 2.541313,1.983113 -1.876729,1.325024 -6.057144,2.430723 -9.525685,2.519493 -0.859869,0.02199 -0.91582,0.0186 -0.462002,-0.02822 z m 7.201782,-0.358176 c 2.695171,-0.993255 4.061092,-1.677032 4.774317,-2.390014 0.329672,-0.329559 0.433883,-0.526508 0.434241,-0.820593 4.34e-4,-0.340507 -0.218682,-0.584175 -0.782846,-0.870606 -1.909549,-0.969529 -7.095616,-1.026649 -11.40744,-0.125634 -0.432011,0.09026 -0.793171,0.156443 -0.802569,0.147057 -0.03008,-0.03008 1.452261,-0.402868 2.267459,-0.570256 1.795471,-0.368642 3.34358,-0.542905 5.217899,-0.587323 2.61773,-0.06201 4.563303,0.212198 5.759736,0.811854 0.731739,0.36675 0.963776,0.779703 0.739601,1.31624 -0.34756,0.831857 -2.183485,1.825365 -5.23866,2.834921 -1.188132,0.392602 -1.714832,0.531918 -0.961738,0.254368 z" />
  </g>
</svg>
