<svg xmlns="http://www.w3.org/2000/svg" width="255.617" height="47.834" viewBox="0 0 67.632 12.656"  xmlns:v="https://vecta.io/nano"><path d="M67.633 8.395a1.79 1.79 0 0 1-.148.723c-.095.227-.227.424-.396.593a1.91 1.91 0 0 1-.593.402c-.227.095-.468.142-.723.142h-.507c-.256 0-.497-.047-.723-.142a1.91 1.91 0 0 1-.995-.995c-.095-.227-.142-.468-.142-.723V5.539c0-.256.047-.497.142-.723a1.91 1.91 0 0 1 .402-.593c.169-.169.367-.301.593-.396a1.79 1.79 0 0 1 .723-.148h.507a1.79 1.79 0 0 1 .723.148c.227.095.424.227.593.396s.301.367.396.593a1.79 1.79 0 0 1 .148.723v.253l-.76.124v-.42c0-.152-.029-.295-.087-.427a1.1 1.1 0 0 0-.235-.352 1.1 1.1 0 0 0-.352-.235c-.132-.058-.274-.087-.427-.087h-.507c-.152 0-.297.029-.433.087a1.12 1.12 0 0 0-.346.235 1.1 1.1 0 0 0-.235.352 1.05 1.05 0 0 0-.087.427v2.943c0 .152.029.297.087.433a1.12 1.12 0 0 0 .581.581c.136.058.28.087.433.087h.507c.152 0 .295-.029.427-.087a1.1 1.1 0 0 0 .352-.235 1.12 1.12 0 0 0 .235-.346c.058-.136.087-.28.087-.433v-.42l.76.124zm-7.299-6.114V1.267h.884v1.014zm.062 7.851v-6.33h.76v6.33zm-2.502-5.607c-.152 0-.297.029-.433.087a1.12 1.12 0 0 0-.346.235 1.1 1.1 0 0 0-.235.352 1.05 1.05 0 0 0-.087.427v4.506h-.76v-6.33h.253l.414.643a1.88 1.88 0 0 1 .649-.556c.264-.14.55-.21.859-.21h.445v.847zm-4.425 5.607c-.231 0-.449-.043-.655-.13a1.68 1.68 0 0 1-.532-.359 1.83 1.83 0 0 1-.359-.532 1.63 1.63 0 0 1-.13-.649V4.525h-1.137v-.723h1.137V2.281l.76-.124v1.644h1.607v.723h-1.607V8.5a.94.94 0 0 0 .068.359.98.98 0 0 0 .198.284c.082.082.179.148.291.198a.94.94 0 0 0 .359.068h.692v.723zm-4.301-1.737a1.79 1.79 0 0 1-.148.723c-.095.227-.227.424-.396.593a1.91 1.91 0 0 1-.593.402c-.227.095-.468.142-.723.142h-.507c-.256 0-.497-.047-.723-.142a1.91 1.91 0 0 1-.995-.995c-.095-.227-.142-.468-.142-.723V5.539c0-.256.047-.497.142-.723a1.91 1.91 0 0 1 .402-.593c.169-.169.367-.301.593-.396a1.79 1.79 0 0 1 .723-.148h.507a1.79 1.79 0 0 1 .723.148c.227.095.424.227.593.396s.301.367.396.593a1.79 1.79 0 0 1 .148.723v.253l-.76.124v-.42a1.05 1.05 0 0 0-.087-.427 1.1 1.1 0 0 0-.587-.587c-.132-.058-.274-.087-.427-.087h-.507c-.152 0-.297.029-.433.087a1.12 1.12 0 0 0-.346.235 1.1 1.1 0 0 0-.235.352 1.05 1.05 0 0 0-.087.427v2.943c0 .152.029.297.087.433a1.12 1.12 0 0 0 .581.581c.136.058.28.087.433.087h.507c.152 0 .295-.029.427-.087a1.1 1.1 0 0 0 .352-.235 1.12 1.12 0 0 0 .235-.346c.058-.136.087-.28.087-.433v-.42l.76.124zm-6.224 0c0 .256-.049.497-.148.723s-.227.424-.396.593a1.91 1.91 0 0 1-.593.402c-.227.095-.468.142-.723.142h-.507c-.256 0-.497-.047-.723-.142a1.91 1.91 0 0 1-.995-.995c-.095-.227-.142-.468-.142-.723V5.539c0-.256.047-.497.142-.723a1.91 1.91 0 0 1 .402-.593c.169-.169.367-.301.593-.396a1.79 1.79 0 0 1 .723-.148h.507a1.79 1.79 0 0 1 .723.148c.227.095.424.227.593.396s.301.367.396.593a1.79 1.79 0 0 1 .148.723v1.49h-3.468v1.409c0 .152.029.297.087.433a1.12 1.12 0 0 0 .581.581c.136.058.28.087.433.087h.507c.152 0 .295-.029.427-.087a1.1 1.1 0 0 0 .352-.235 1.12 1.12 0 0 0 .235-.346c.058-.136.087-.28.087-.433v-.42l.76.124v.253zm-.76-2.899a1.05 1.05 0 0 0-.087-.427 1.1 1.1 0 0 0-.235-.352 1.1 1.1 0 0 0-.352-.235c-.132-.058-.274-.087-.427-.087h-.507c-.152 0-.297.029-.433.087a1.12 1.12 0 0 0-.346.235 1.1 1.1 0 0 0-.235.352c-.058.132-.087.274-.087.427v.94h2.708zm-6.477 4.636V1.267h.76v8.865zm-2.249-1.737a1.79 1.79 0 0 1-.148.723c-.095.227-.227.424-.396.593a1.91 1.91 0 0 1-.593.402c-.227.095-.468.142-.723.142h-.507c-.256 0-.497-.047-.723-.142a1.91 1.91 0 0 1-.995-.995c-.095-.227-.142-.468-.142-.723V5.539c0-.256.047-.497.142-.723a1.91 1.91 0 0 1 .402-.593c.169-.169.367-.301.593-.396a1.79 1.79 0 0 1 .723-.148h.507a1.79 1.79 0 0 1 .723.148c.227.095.424.227.593.396s.301.367.396.593a1.79 1.79 0 0 1 .148.723v1.49h-3.468v1.409c0 .152.029.297.087.433a1.12 1.12 0 0 0 .581.581c.136.058.28.087.433.087h.507c.152 0 .295-.029.427-.087a1.1 1.1 0 0 0 .352-.235 1.12 1.12 0 0 0 .235-.346c.058-.136.087-.28.087-.433v-.42l.76.124v.253zm-.76-2.899c0-.152-.029-.295-.087-.427a1.1 1.1 0 0 0-.235-.352 1.1 1.1 0 0 0-.352-.235c-.132-.058-.274-.087-.427-.087h-.507c-.152 0-.297.029-.433.087a1.12 1.12 0 0 0-.346.235 1.1 1.1 0 0 0-.235.352 1.05 1.05 0 0 0-.087.427v.94h2.708z" fill="#ecf22e"/><path d="M0 10.807V8.959l1.834.001c1.801.001 1.838.003 2.05.123.243.138.436.393.517.685.074.265.07 1.747-.005 2.045-.033.131-.145.337-.248.458-.308.36-.467.385-2.447.385H0zm3.671 1.062c.131-.132.133-.147.132-1.073-.001-.653-.022-.966-.068-1.026-.151-.197-.282-.213-1.72-.213H.598v2.446h2.94zm1.079.609l.144-.883c.244-1.582.565-2.243 1.233-2.539.513-.227 1.232-.173 1.641.123.508.368.74.937.957 2.346l.166.995c.033.132.027.134-.295.134-.181 0-.344-.024-.362-.053s-.069-.353-.113-.72l-.104-.735c-.018-.05-.247-.068-.895-.068h-.871v-.595l1.634-.03-.143-.287c-.204-.408-.441-.574-.858-.597-.397-.022-.593.077-.848.429-.228.315-.359.776-.494 1.746l-.141.869c-.014.022-.173.041-.355.041h-.33zm4.569.108c-.014-.038-.02-.872-.012-1.855l.014-1.786.571-.015v3.723h-.273c-.17 0-.283-.026-.3-.068zm1.062-1.793V8.932l.571.015.029 3.709h-.599zm3.696 1.246c0-.575-.008-.623-.127-.735-.203-.191-.435-.226-1.517-.226h-1.019v-.598h1.056c1.091 0 1.268-.027 1.485-.23.113-.105.122-.162.122-.717v-.602h.652v1.336l-.501.536.171.144c.286.241.33.385.33 1.079v.628h-.652zm1.93.565c-.295-.073-.515-.221-.666-.45l-.149-.226v-2.3l.15-.217c.083-.119.244-.269.358-.334.2-.112.273-.117 1.942-.121l1.734-.005.033.604h-3.329l-.159.159c-.138.138-.159.199-.159.462v.303h3.642v.598h-3.642v.303c0 .263.021.324.159.462l.159.159h3.329l-.033.625-1.603.008c-.882.005-1.677-.01-1.766-.031zm3.724-1.376c.001-1.573.023-1.694.359-2.008.225-.21.405-.262.907-.261.515.001.792.12 1 .428.195.29.232.519.235 1.446.001.597.023.897.068.956.113.147.293.213.583.213.236 0 .304-.025.438-.159l.159-.159v-2.78h.598v1.415c0 1.54-.02 1.662-.315 1.973-.208.219-.397.304-.757.342-.581.06-1.047-.156-1.278-.594-.108-.205-.122-.322-.138-1.179-.01-.541-.043-1.002-.077-1.07-.085-.169-.328-.253-.648-.222-.184.018-.315.065-.393.144-.114.114-.118.165-.134 1.529l-.016 1.412h-.593l.001-1.427zM7.039 7.378c-2.172-.187-3.761-.724-4.07-1.375-.496-1.044 1.272-2.242 5.235-3.547l1.267-.386c.026.008-.229.111-.567.228-.816.282-2.132.829-2.826 1.175-1.15.574-1.981 1.259-2.11 1.738-.049.182-.041.255.046.453.122.276.338.454.83.684 1.897.888 7.159.927 11.217.083 1.218-.253.863-.127-.678.241-1.067.255-2.596.514-3.723.631-.98.102-3.779.147-4.62.075zm1.277-1.794c3.521-.362 7.278-1.487 8.687-2.601 1.066-.843.599-1.483-1.334-1.827l-.422-.075.516.028c3.056.168 4.033.93 2.541 1.983-1.877 1.325-6.057 2.431-9.526 2.519-.86.022-.916.019-.462-.028zm7.202-.358c2.695-.993 4.061-1.677 4.774-2.39.33-.33.434-.527.434-.821 0-.341-.219-.584-.783-.871-1.91-.97-7.096-1.027-11.407-.126-.432.09-.793.156-.803.147-.03-.03 1.452-.403 2.267-.57 1.795-.369 3.344-.543 5.218-.587 2.618-.062 4.563.212 5.76.812.732.367.964.78.74 1.316-.348.832-2.183 1.825-5.239 2.835-1.188.393-1.715.532-.962.254z" fill="#fff"/></svg>